<svg width="31" height="30" viewBox="0 0 31 30" fill="none" xmlns="http://www.w3.org/2000/svg">
<g id="flowbite:search-outline">
<path id="Vector" d="M26.4722 26.25L22.0972 21.875M21.4722 12.5C21.4722 13.6491 21.2458 14.7869 20.8061 15.8485C20.3664 16.9101 19.7219 17.8747 18.9094 18.6872C18.0968 19.4997 17.1322 20.1442 16.0706 20.5839C15.009 21.0237 13.8712 21.25 12.7222 21.25C11.5731 21.25 10.4353 21.0237 9.37369 20.5839C8.31209 20.1442 7.3475 19.4997 6.53498 18.6872C5.72247 17.8747 5.07795 16.9101 4.63822 15.8485C4.19849 14.7869 3.97217 13.6491 3.97217 12.5C3.97217 10.1794 4.89404 7.95376 6.53498 6.31282C8.17593 4.67187 10.4015 3.75 12.7222 3.75C15.0428 3.75 17.2684 4.67187 18.9094 6.31282C20.5503 7.95376 21.4722 10.1794 21.4722 12.5Z" stroke="white" stroke-width="2.5" stroke-linecap="round"/>
</g>
</svg>
