<svg width="40" height="40" viewBox="0 0 40 40" fill="none" xmlns="http://www.w3.org/2000/svg">
<g id="fluent-mdl2:radio-bullet">
<path id="Vector" d="M20 12.4996C21.0286 12.4996 21.9987 12.6949 22.9102 13.0856C23.8216 13.4762 24.6159 14.0101 25.293 14.6871C25.9701 15.3642 26.5104 16.165 26.9141 17.0895C27.3177 18.014 27.513 18.984 27.5 19.9996C27.5 21.0413 27.3047 22.0114 26.9141 22.9098C26.5234 23.8082 25.9896 24.6025 25.3125 25.2926C24.6354 25.9827 23.8346 26.5231 22.9102 26.9137C21.9857 27.3043 21.0156 27.4996 20 27.4996C18.9583 27.4996 17.9883 27.3043 17.0898 26.9137C16.1914 26.5231 15.3971 25.9892 14.707 25.3121C14.0169 24.6351 13.4766 23.8408 13.0859 22.9293C12.6953 22.0179 12.5 21.0413 12.5 19.9996C12.5 18.971 12.6953 18.0009 13.0859 17.0895C13.4766 16.178 14.0104 15.3837 14.6875 14.7067C15.3646 14.0296 16.1589 13.4892 17.0703 13.0856C17.9818 12.6819 18.9583 12.4866 20 12.4996Z" fill="#B80944"/>
</g>
</svg>
