<svg width="22" height="17" viewBox="0 0 22 17" fill="none" xmlns="http://www.w3.org/2000/svg">
<g id="Group 427319156">
<path id="Vector" d="M10.9844 1.72559C7.50513 1.72559 3.93608 3.91843 1.12638 8.30413C1.04618 8.43069 1.00223 8.5803 1.00008 8.73405C0.997937 8.8878 1.03769 9.03879 1.11432 9.16795C3.27316 12.8478 6.79444 15.7256 10.9844 15.7256C15.1289 15.7256 18.7225 12.8391 20.8854 9.15093C20.9602 9.02431 21 8.8769 21 8.72632C21 8.57573 20.9602 8.42832 20.8854 8.3017C18.7176 4.65586 15.0977 1.72559 10.9844 1.72559Z" stroke="#F98DB1" stroke-width="1.7" stroke-linecap="round" stroke-linejoin="round"/>
<path id="Vector_2" d="M11.0001 12.521C12.9267 12.521 14.4885 10.8219 14.4885 8.72584C14.4885 6.62982 12.9267 4.93066 11.0001 4.93066C9.07352 4.93066 7.51172 6.62982 7.51172 8.72584C7.51172 10.8219 9.07352 12.521 11.0001 12.521Z" stroke="#F98DB1" stroke-width="1.7" stroke-miterlimit="10"/>
</g>
</svg>
