<svg width="61" height="61" viewBox="0 0 61 61" fill="none" xmlns="http://www.w3.org/2000/svg">
<g id="icons8:right-round">
<path id="Vector" d="M30.5 6.125C17.06 6.125 6.125 17.06 6.125 30.5C6.125 43.94 17.06 54.875 30.5 54.875C43.94 54.875 54.875 43.94 54.875 30.5C54.875 17.06 43.94 6.125 30.5 6.125ZM30.5 9.875C41.9131 9.875 51.125 19.0869 51.125 30.5C51.125 41.9131 41.9131 51.125 30.5 51.125C19.0869 51.125 9.875 41.9131 9.875 30.5C9.875 19.0869 19.0869 9.875 30.5 9.875ZM31.85 18.4887L29.15 21.125L36.65 28.625H17.375V32.375H36.65L29.15 39.875L31.85 42.5112L42.5112 31.8481L43.8612 30.4981L42.5112 29.1481L31.8481 18.4869L31.85 18.4887Z" fill="white"/>
</g>
</svg>
