<svg width="12" height="16" viewBox="0 0 12 16" fill="none" xmlns="http://www.w3.org/2000/svg">
<path id="Vector" d="M12 5.6C12 4.8646 11.8448 4.1364 11.5433 3.45697C11.2417 2.77755 10.7998 2.16021 10.2426 1.6402C9.68549 1.12019 9.02405 0.707701 8.2961 0.426275C7.56815 0.144848 6.78793 0 6 0C5.21207 0 4.43185 0.144848 3.7039 0.426275C2.97595 0.707701 2.31451 1.12019 1.75736 1.6402C1.20021 2.16021 0.758251 2.77755 0.456723 3.45697C0.155194 4.1364 -1.17411e-08 4.8646 0 5.6C0 6.7096 0.350571 7.7416 0.947143 8.612H0.940286L6 16L11.0597 8.612H11.0537C11.6716 7.71326 12 6.66785 12 5.6ZM6 8C5.31801 8 4.66396 7.74714 4.18173 7.29706C3.69949 6.84697 3.42857 6.23652 3.42857 5.6C3.42857 4.96348 3.69949 4.35303 4.18173 3.90294C4.66396 3.45286 5.31801 3.2 6 3.2C6.68199 3.2 7.33604 3.45286 7.81827 3.90294C8.30051 4.35303 8.57143 4.96348 8.57143 5.6C8.57143 6.23652 8.30051 6.84697 7.81827 7.29706C7.33604 7.74714 6.68199 8 6 8Z" fill="#5C5A5A"/>
</svg>
