<svg width="468" height="319" viewBox="0 0 468 319" fill="none" xmlns="http://www.w3.org/2000/svg">
<path d="M432.233 119.477H468V158.867H432.233V119.477ZM370.056 119.477H405.823V158.867H370.056V119.477ZM267.048 119.496L255.81 162.689L191.289 0L157.865 120.315H57.4743V159.705H183.13L196.985 109.961L262.566 275.438L292.672 158.867H343.525V119.477L267.048 119.496Z" fill="white"/>
<path d="M38.3152 293.357L60.9137 227.963H68.8186L76.6304 317.008H68.0746L62.2157 250.063L42.2211 307.186H34.5953L14.4147 250.063L8.55582 317.008H0L7.81184 227.963H15.7167L38.3152 293.357Z" fill="white"/>
<path d="M93.8104 282.114H120.78C119.757 271.904 114.642 265.959 107.574 265.959C100.413 265.959 94.8333 271.904 93.8104 282.114ZM129.15 286.637C129.15 288.059 129.15 289.868 129.057 291.29H93.8104C94.8333 301.5 100.413 307.703 107.853 307.703C113.061 307.703 117.804 304.472 120.315 298.398C122.547 299.819 125.244 300.853 127.569 302.275C123.849 313.002 116.037 318.3 107.574 318.3C95.2053 318.3 85.3475 305.764 85.3475 286.637C85.3475 267.51 95.2053 255.361 107.574 255.361C119.943 255.361 129.15 267.51 129.15 286.637Z" fill="white"/>
<path d="M174.222 317.008V307.703C171.34 314.423 165.016 318.3 158.971 318.3C147.067 318.3 137.023 305.894 137.023 286.766C137.023 267.51 146.974 255.361 158.878 255.361C165.295 255.361 171.34 258.851 174.222 265.7L182.685 112.381V317.008H174.222ZM174.129 286.637C174.129 273.713 166.783 266.864 159.715 266.864C151.903 266.864 145.672 274.747 145.672 286.637C145.672 298.527 151.903 306.798 159.715 306.798C167.434 306.798 174.129 299.432 174.129 286.637Z" fill="white"/>
<path d="M207.172 120.315L198.523 112.381L207.172 305.764H233.305V317.008H198.523L207.172 120.315Z" fill="white"/>
<path d="M251.264 256.654V317.008H242.894V256.654H251.264ZM241.22 234.425C241.22 229.901 243.824 226.8 247.079 226.8C250.334 226.8 252.938 229.901 252.938 234.425C252.938 238.948 250.334 242.05 247.079 242.05C243.824 242.05 241.22 238.948 241.22 234.425Z" fill="white"/>
<path d="M273.88 284.44V317.008H265.417V256.654H273.88V265.7C276.391 258.463 282.715 255.361 287.458 255.361C298.339 255.361 304.197 265.054 304.197 282.114V317.008H295.735V282.889C295.735 272.679 292.108 266.864 286.156 266.864C280.018 266.864 273.88 271.645 273.88 284.44Z" fill="white"/>
<path d="M326.189 287.542V317.008H317.819V223.827H326.189V277.72L341.162 256.654H352.694L334.094 282.76L357.158 317.008H345.998L326.189 287.542Z" fill="white"/>
</svg>
