<svg width="87" height="34" viewBox="0 0 87 34" fill="none" xmlns="http://www.w3.org/2000/svg">
<g id="MedLink">
<path d="M9.3332 29.8562L14.838 19.0968H16.7635L18.6664 33.7474H16.5823L15.1551 22.7329L10.2846 32.1314H8.42706L3.51128 22.7329L2.08411 33.7474H0L1.90289 19.0968H3.82842L9.3332 29.8562Z" fill="#111111"/>
<path d="M22.8513 28.0063H29.4207C29.1716 26.3264 27.9256 25.3483 26.204 25.3483C24.4596 25.3483 23.1004 26.3264 22.8513 28.0063ZM31.4595 28.7505C31.4595 28.9844 31.4595 29.2821 31.4369 29.516H22.8513C23.1004 31.1958 24.4596 32.2165 26.2719 32.2165C27.5405 32.2165 28.6958 31.6849 29.3075 30.6855C29.8512 30.9194 30.5081 31.0895 31.0744 31.3234C30.1683 33.0883 28.2654 33.9601 26.204 33.9601C23.1911 33.9601 20.7898 31.8975 20.7898 28.7505C20.7898 25.6035 23.1911 23.6047 26.204 23.6047C29.2169 23.6047 31.4595 25.6035 31.4595 28.7505Z" fill="#111111"/>
<path d="M42.4388 33.7474V32.2165C41.7366 33.3222 40.1961 33.9601 38.7237 33.9601C35.824 33.9601 33.3775 31.9188 33.3775 28.7718C33.3775 25.6035 35.8014 23.6047 38.701 23.6047C40.2641 23.6047 41.7366 24.1788 42.4388 25.3058L44.5003 0.0800781V18.4164V33.7474H42.4388ZM42.4162 28.7505C42.4162 26.6241 40.6266 25.4972 38.9049 25.4972C37.002 25.4972 35.4842 26.7942 35.4842 28.7505C35.4842 30.7068 37.002 32.0676 38.9049 32.0676C40.7851 32.0676 42.4162 30.8556 42.4162 28.7505Z" fill="#111111"/>
<path d="M50.465 0.0800781H48.3583L50.465 31.8975H56.8306V33.7474H48.3583L50.465 0.0800781Z" fill="#111111"/>
<path d="M61.2054 23.8173V33.7474H59.1666V23.8173H61.2054ZM58.7588 20.16C58.7588 19.4158 59.3931 18.9055 60.186 18.9055C60.9789 18.9055 61.6132 19.4158 61.6132 20.16C61.6132 20.9042 60.9789 21.4146 60.186 21.4146C59.3931 21.4146 58.7588 20.9042 58.7588 20.16Z" fill="#111111"/>
<path d="M66.7144 28.389V33.7474H64.653V23.8173H66.7144V25.3058C67.3261 24.115 68.8665 23.6047 70.0218 23.6047C72.6723 23.6047 74.0994 25.1995 74.0994 28.0063V33.7474H72.038V28.1339C72.038 26.454 71.1545 25.4972 69.7047 25.4972C68.2095 25.4972 66.7144 26.2839 66.7144 28.389Z" fill="#111111"/>
<path d="M79.4564 28.8993V33.7474H77.4176V18.4164H79.4564V27.2833L83.1036 23.8173H85.9126L81.382 28.1126L87 33.7474H84.2816L79.4564 28.8993Z" fill="#111111"/>
</g>
</svg>
