<svg width="20" height="4" viewBox="0 0 20 4" fill="none" xmlns="http://www.w3.org/2000/svg">
<path id="Vector" d="M4.44444 2C4.44444 2.53043 4.21032 3.03914 3.79357 3.41421C3.37682 3.78929 2.81159 4 2.22222 4C1.63285 4 1.06762 3.78929 0.650874 3.41421C0.234126 3.03914 0 2.53043 0 2C0 1.46957 0.234126 0.96086 0.650874 0.585787C1.06762 0.210714 1.63285 0 2.22222 0C2.81159 0 3.37682 0.210714 3.79357 0.585787C4.21032 0.96086 4.44444 1.46957 4.44444 2ZM12.2222 2C12.2222 2.53043 11.9881 3.03914 11.5713 3.41421C11.1546 3.78929 10.5894 4 10 4C9.41063 4 8.8454 3.78929 8.42865 3.41421C8.0119 3.03914 7.77778 2.53043 7.77778 2C7.77778 1.46957 8.0119 0.96086 8.42865 0.585787C8.8454 0.210714 9.41063 0 10 0C10.5894 0 11.1546 0.210714 11.5713 0.585787C11.9881 0.96086 12.2222 1.46957 12.2222 2ZM20 2C20 2.53043 19.7659 3.03914 19.3491 3.41421C18.9324 3.78929 18.3671 4 17.7778 4C17.1884 4 16.6232 3.78929 16.2064 3.41421C15.7897 3.03914 15.5556 2.53043 15.5556 2C15.5556 1.46957 15.7897 0.96086 16.2064 0.585787C16.6232 0.210714 17.1884 0 17.7778 0C18.3671 0 18.9324 0.210714 19.3491 0.585787C19.7659 0.96086 20 1.46957 20 2Z" fill="#5C5A5A"/>
</svg>
