<svg width="13" height="23" viewBox="0 0 13 23" fill="none" xmlns="http://www.w3.org/2000/svg">
<path id="Vector" d="M10.3977 6.20643L9.9579 16.2123C9.93666 16.6941 9.82094 17.1786 9.61735 17.6383C9.41375 18.0979 9.12627 18.5236 8.77131 18.8911C8.41635 19.2586 8.00087 19.5606 7.54859 19.78C7.09631 19.9994 6.61608 20.1319 6.13533 20.1698C5.65458 20.2077 5.18273 20.1504 4.7467 20.001C4.31067 19.8517 3.91902 19.6133 3.59409 19.2994C3.26917 18.9855 3.01734 18.6023 2.85299 18.1717C2.68863 17.7411 2.61497 17.2715 2.63621 16.7897L3.16389 4.7842C3.18334 4.34167 3.37742 3.9034 3.70342 3.56581C4.02942 3.22822 4.46065 3.01897 4.90224 2.98408C5.34383 2.9492 5.75961 3.09154 6.0581 3.3798C6.3566 3.66805 6.51337 4.07861 6.49392 4.52115L6.02486 15.193C6.0226 15.4513 6.12092 15.6881 6.29911 15.8534C6.47731 16.0188 6.72146 16.0997 6.98013 16.0793C7.2388 16.0589 7.49179 15.9386 7.68581 15.7439C7.87983 15.5491 7.99973 15.2951 8.02024 15.0353L8.4893 4.36352C8.53207 3.39039 8.18734 2.48759 7.53095 1.85372C6.87456 1.21985 5.96028 0.906841 4.98923 0.983549C4.01819 1.06026 3.06992 1.5204 2.35304 2.26275C1.63617 3.0051 1.2094 3.96884 1.16663 4.94198L0.64083 16.9474C0.592591 18.438 1.13357 19.8154 2.14642 20.7807C3.15927 21.746 4.56232 22.2214 6.05127 22.1037C7.54021 21.9861 8.99498 21.285 10.1 20.1524C11.2051 19.0198 11.8713 17.5471 11.9543 16.0537L12.394 6.04967C12.3962 5.79133 12.2979 5.55455 12.1197 5.38921C11.9415 5.22387 11.6974 5.14289 11.4387 5.16332C11.18 5.18376 10.927 5.30401 10.733 5.49875C10.539 5.69349 10.4191 5.94751 10.3986 6.2073" fill="#5C5A5A"/>
</svg>
