<svg width="20" height="30" viewBox="0 0 20 30" fill="none" xmlns="http://www.w3.org/2000/svg">
<path id="Vector" d="M3.33333 0C2.44928 0 1.60143 0.395088 0.976311 1.09835C0.351189 1.80161 0 2.75544 0 3.75V26.25C0 27.2446 0.351189 28.1984 0.976311 28.9016C1.60143 29.6049 2.44928 30 3.33333 30H16.6667C17.5507 30 18.3986 29.6049 19.0237 28.9016C19.6488 28.1984 20 27.2446 20 26.25V10.1512C19.9994 9.40558 19.7356 8.69069 19.2667 8.16375L12.7433 0.823125C12.2747 0.296216 11.6392 0.000159152 10.9767 0H3.33333ZM1.66667 3.75C1.66667 3.25272 1.84226 2.77581 2.15482 2.42417C2.46738 2.07254 2.89131 1.875 3.33333 1.875H10V8.4375C10 9.18342 10.2634 9.89879 10.7322 10.4262C11.2011 10.9537 11.837 11.25 12.5 11.25H18.3333V26.25C18.3333 26.7473 18.1577 27.2242 17.8452 27.5758C17.5326 27.9275 17.1087 28.125 16.6667 28.125H3.33333C2.89131 28.125 2.46738 27.9275 2.15482 27.5758C1.84226 27.2242 1.66667 26.7473 1.66667 26.25V3.75ZM17.9883 9.375H12.5C12.279 9.375 12.067 9.27623 11.9107 9.10041C11.7545 8.9246 11.6667 8.68614 11.6667 8.4375V2.26312L17.9883 9.375Z" fill="#F3FEFF"/>
</svg>
